0
SECTION
2
HEADER
9
$INSUNITS
70
4
9
$ACADVER
1
AC1014
9
$HANDSEED
5
FFFF
0
ENDSEC
0
SECTION
2
TABLES
0
TABLE
2
VPORT
5
8
100
AcDbSymbolTable
0
ENDTAB
0
TABLE
2
LTYPE
5
5
100
AcDbSymbolTable
0
LTYPE
5
14
100
AcDbSymbolTableRecord
100
AcDbLinetypeTableRecord
2
BYBLOCK
70
0
0
LTYPE
5
15
100
AcDbSymbolTableRecord
100
AcDbLinetypeTableRecord
2
BYLAYER
70
0
0
ENDTAB
0
TABLE
2
LAYER
5
2
100
AcDbSymbolTable
70
2
0
LAYER
5
50
100
AcDbSymbolTableRecord
100
AcDbLayerTableRecord
2
0
70
0
6
CONTINUOUS
0
ENDTAB
0
TABLE
2
STYLE
5
3
100
AcDbSymbolTable
70
1
0
STYLE
5
11
100
AcDbSymbolTableRecord
100
AcDbTextStyleTableRecord
2
STANDARD
70
0
0
ENDTAB
0
TABLE
2
VIEW
5
6
100
AcDbSymbolTable
70
0
0
ENDTAB
0
TABLE
2
UCS
5
7
100
AcDbSymbolTable
70
0
0
ENDTAB
0
TABLE
2
APPID
5
9
100
AcDbSymbolTable
70
2
0
APPID
5
12
100
AcDbSymbolTableRecord
100
AcDbRegAppTableRecord
2
ACAD
70
0
0
ENDTAB
0
TABLE
2
DIMSTYLE
5
A
100
AcDbSymbolTable
70
1
0
ENDTAB
0
TABLE
2
BLOCK_RECORD
5
1
100
AcDbSymbolTable
70
1
0
BLOCK_RECORD
5
1F
100
AcDbSymbolTableRecord
100
AcDbBlockTableRecord
2
*MODEL_SPACE
0
BLOCK_RECORD
5
1B
100
AcDbSymbolTableRecord
100
AcDbBlockTableRecord
2
*PAPER_SPACE
0
ENDTAB
0
ENDSEC
0
SECTION
2
BLOCKS
0
BLOCK
5
20
100
AcDbEntity
100
AcDbBlockBegin
2
*MODEL_SPACE
0
ENDBLK
5
21
100
AcDbEntity
100
AcDbBlockEnd
0
BLOCK
5
1C
100
AcDbEntity
100
AcDbBlockBegin
2
*PAPER_SPACE
0
ENDBLK
5
1D
100
AcDbEntity
100
AcDbBlockEnd
0
ENDSEC
0
SECTION
2
ENTITIES
0
LWPOLYLINE
5
100
100
AcDbEntity
8
0
100
AcDbPolyline
90
8
70
1
43
0.0
10
233.29021164378446
20
189.18201685695527
10
233.28824820418507
20
287.68414812665208
42
0.41421356237309503
10
228.28824820418498
20
292.68414812665185
10
178.28824820418518
20
292.68414812665196
42
0.41421356237309503
10
173.28824820418509
20
287.68414812665213
10
173.2664044033335
20
189.26707689494322
42
0.41378651648098519
10
178.2580032975323
20
184.26597419592582
10
228.28181066213267
20
184.18192424978315
42
0.41471160671761215
0
CIRCLE
5
101
100
AcDbEntity
8
0
100
AcDbCircle
10
187.78824820418492
20
283.18414812665208
30
-5.4242318630721516e-16
40
1.7500000000000002
0
CIRCLE
5
102
100
AcDbEntity
8
0
100
AcDbCircle
10
187.78824820418492
20
252.18414812665188
30
-1.1842206476288072e-15
40
1.7500000000000002
0
CIRCLE
5
103
100
AcDbEntity
8
0
100
AcDbCircle
10
203.28824820418518
20
212.68414812665199
30
-1.0299976895046429e-15
40
2.7500000000000009
0
CIRCLE
5
104
100
AcDbEntity
8
0
100
AcDbCircle
10
203.28824820418518
20
192.68414812665213
30
1.9464910964270861e-16
40
2.7500000000000009
0
CIRCLE
5
105
100
AcDbEntity
8
0
100
AcDbCircle
10
223.28824820418475
20
192.68414812665213
30
2.8535551134801142e-16
40
2.7500000000000009
0
CIRCLE
5
106
100
AcDbEntity
8
0
100
AcDbCircle
10
218.78824820418481
20
252.18414812665188
30
-5.4242318630719149e-16
40
1.7500000000000002
0
CIRCLE
5
107
100
AcDbEntity
8
0
100
AcDbCircle
10
218.78824820418487
20
283.18414812665208
30
9.9374275014392664e-17
40
1.7500000000000002
0
CIRCLE
5
108
100
AcDbEntity
8
0
100
AcDbCircle
10
203.28824820418498
20
267.68414812665213
30
-5.4242318630721516e-16
40
3.0000000000000018
0
CIRCLE
5
109
100
AcDbEntity
8
0
100
AcDbCircle
10
223.28824820418475
20
212.68414812665199
30
-9.3929128779934006e-16
40
2.7500000000000009
0
CIRCLE
5
110
100
AcDbEntity
8
0
100
AcDbCircle
10
183.28824820418532
20
212.68414812665213
30
-9.3929128779934006e-16
40
2.7500000000000009
0
CIRCLE
5
111
100
AcDbEntity
8
0
100
AcDbCircle
10
218.78824820418487
20
283.18414812665208
30
9.9374275014392664e-17
40
1.7500000000000002
0
CIRCLE
5
112
100
AcDbEntity
8
0
100
AcDbCircle
10
183.28824820418509
20
192.68414812665227
30
2.8535551134801142e-16
40
2.7500000000000009
0
CIRCLE
5
113
100
AcDbEntity
8
0
100
AcDbCircle
10
218.78824820418481
20
252.18414812665188
30
-5.4242318630719149e-16
40
1.7500000000000002
0
CIRCLE
5
114
100
AcDbEntity
8
0
100
AcDbCircle
10
183.28824820418518
20
212.68414812665208
30
-1.0299976895046429e-15
40
2.7500000000000009
0
CIRCLE
5
115
100
AcDbEntity
8
0
100
AcDbCircle
10
187.78824820418492
20
283.18414812665208
30
-5.4242318630721516e-16
40
1.7500000000000002
0
CIRCLE
5
116
100
AcDbEntity
8
0
100
AcDbCircle
10
187.78824820418492
20
252.18414812665188
30
-1.1842206476288072e-15
40
1.7500000000000002
0
CIRCLE
5
117
100
AcDbEntity
8
0
100
AcDbCircle
10
203.28824820418498
20
267.68414812665213
30
-5.4242318630721516e-16
40
3.0000000000000018
0
LINE
5
118
100
AcDbEntity
8
0
100
AcDbLine
10
178.28824820418518
20
292.68414812665196
30
0
11
228.28824820418498
21
292.68414812665185
31
0
0
CIRCLE
5
119
100
AcDbEntity
8
0
100
AcDbCircle
10
248.00023357534423
20
443.73274777734491
30
0
40
2.7500000000000013
0
LWPOLYLINE
5
120
100
AcDbEntity
8
0
100
AcDbPolyline
90
12
70
1
43
0.0
10
157.47654928305326
20
449.26599763986189
42
-0.41493475763628501
10
167.44991411770479
20
459.2639440420993
10
250.5189486173953
20
459.26394404209941
42
-0.53177589625438748
10
259.96870821489978
20
445.25096715196287
10
228.33457510333625
20
367.00043734375356
10
225.0010825177435
20
364.97949292754402
10
227.0029283389328
20
363.70646167309189
10
215.54590821269829
20
335.36625422250609
42
-0.82432860976044864
10
157.45715051149301
20
346.6695013085436
10
157.46031847921802
20
363.4546041458853
10
159.02114532254478
20
364.98595658156955
10
157.46089379226876
20
366.50283239870419
0
CIRCLE
5
121
100
AcDbEntity
8
0
100
AcDbCircle
10
198.00023357534442
20
383.73274777734451
30
0
40
3.589999999999999
0
CIRCLE
5
122
100
AcDbEntity
8
0
100
AcDbCircle
10
223.00023357534434
20
383.7327477773448
30
0
40
2.7500000000000013
0
CIRCLE
5
123
100
AcDbEntity
8
0
100
AcDbCircle
10
168.0002335753444
20
443.73274777734491
30
0
40
2.7500000000000013
0
CIRCLE
5
124
100
AcDbEntity
8
0
100
AcDbCircle
10
198.00023357534434
20
333.7327477773448
30
0
40
2.7500000000000013
0
CIRCLE
5
125
100
AcDbEntity
8
0
100
AcDbCircle
10
178.00023357534434
20
353.7327477773448
30
0
40
2.7500000000000013
0
CIRCLE
5
126
100
AcDbEntity
8
0
100
AcDbCircle
10
198.00023357534434
20
353.7327477773448
30
0
40
2.7500000000000013
0
CIRCLE
5
127
100
AcDbEntity
8
0
100
AcDbCircle
10
173.00023357534434
20
383.7327477773448
30
0
40
2.7500000000000013
0
CIRCLE
5
128
100
AcDbEntity
8
0
100
AcDbCircle
10
178.0002335753444
20
333.7327477773448
30
0
40
2.7500000000000013
0
CIRCLE
5
129
100
AcDbEntity
8
0
100
AcDbCircle
10
208.00023357534431
20
443.73274777734491
30
0
40
2.7500000000000013
0
LWPOLYLINE
5
130
100
AcDbEntity
8
0
100
AcDbPolyline
90
12
70
1
43
0.0
10
148.54014867147069
20
411.73858039856214
10
148.54331663919569
20
428.52368323590383
42
0.82432860976044864
10
90.454558937990299
20
439.82693032194135
10
78.997538811755931
20
411.48672287135554
10
80.999384632945223
20
410.21369161690347
10
77.665892047352486
20
408.19274720069387
10
46.031758935788943
20
329.94221739248462
42
0.53177589625438748
10
55.481518533293425
20
315.92924050234814
10
138.55055303298394
20
315.92924050234814
42
0.41493475763628501
10
148.52391786763542
20
325.92718690458554
10
148.53957335841994
20
408.69035214574325
10
146.9793218281439
20
410.20722796287782
0
CIRCLE
5
131
100
AcDbEntity
8
0
100
AcDbCircle
10
98.00023357534441
20
331.46043676710246
30
0
40
2.7500000000000013
0
CIRCLE
5
132
100
AcDbEntity
8
0
100
AcDbCircle
10
128.00023357534434
20
421.46043676710264
30
0
40
2.7500000000000013
0
CIRCLE
5
133
100
AcDbEntity
8
0
100
AcDbCircle
10
128.00023357534431
20
441.46043676710264
30
0
40
2.7500000000000013
0
CIRCLE
5
134
100
AcDbEntity
8
0
100
AcDbCircle
10
108.00023357534435
20
421.46043676710264
30
0
40
2.7500000000000013
0
CIRCLE
5
135
100
AcDbEntity
8
0
100
AcDbCircle
10
133.00023357534434
20
391.46043676710264
30
0
40
2.7500000000000013
0
CIRCLE
5
136
100
AcDbEntity
8
0
100
AcDbCircle
10
138.00023357534434
20
331.46043676710246
30
0
40
2.7500000000000013
0
CIRCLE
5
137
100
AcDbEntity
8
0
100
AcDbCircle
10
58.00023357534451
20
331.46043676710246
30
0
40
2.7500000000000013
0
CIRCLE
5
138
100
AcDbEntity
8
0
100
AcDbCircle
10
108.00023357534435
20
441.46043676710264
30
0
40
2.7500000000000013
0
CIRCLE
5
139
100
AcDbEntity
8
0
100
AcDbCircle
10
83.000233575344367
20
391.46043676710264
30
0
40
2.7500000000000013
0
CIRCLE
5
140
100
AcDbEntity
8
0
100
AcDbCircle
10
108.00023357534428
20
391.46043676710292
30
0
40
3.589999999999999
0
CIRCLE
5
141
100
AcDbEntity
8
0
100
AcDbCircle
10
273.28824820418515
20
362.68414812665213
30
-1.0299976895046429e-15
40
2.7500000000000009
0
CIRCLE
5
142
100
AcDbEntity
8
0
100
AcDbCircle
10
293.28824820418515
20
342.68414812665213
30
1.9464910964270861e-16
40
2.7500000000000009
0
CIRCLE
5
143
100
AcDbEntity
8
0
100
AcDbCircle
10
293.28824820418498
20
417.68414812665213
30
-5.4242318630721516e-16
40
3.0000000000000018
0
CIRCLE
5
144
100
AcDbEntity
8
0
100
AcDbCircle
10
313.28824820418475
20
322.68414812665213
30
-1.029997689504635e-15
40
2.7500000000000009
0
CIRCLE
5
145
100
AcDbEntity
8
0
100
AcDbCircle
10
273.28824820418515
20
322.68414812665213
30
-1.0299976895046429e-15
40
2.7500000000000009
0
LWPOLYLINE
5
146
100
AcDbEntity
8
0
100
AcDbPolyline
90
8
70
1
43
0.0
10
318.24261307361735
20
321.52136635786349
10
318.24261307361695
20
437.68416100731685
42
0.41421357727810471
10
313.24261281917239
20
442.68416100731685
10
273.28824795218213
20
442.68415897408318
42
0.4142135474680938
10
268.28824820662658
20
437.68415897408318
10
268.28824820662658
20
321.52136635786337
42
0.41421356237310542
10
273.28824820662663
20
316.52136635786314
10
313.24261307361741
20
316.52136635786343
42
0.41421356237310125
0
CIRCLE
5
147
100
AcDbEntity
8
0
100
AcDbCircle
10
308.78824820418487
20
433.18414812665208
30
9.9374275014392664e-17
40
1.7500000000000002
0
CIRCLE
5
148
100
AcDbEntity
8
0
100
AcDbCircle
10
277.78824820418492
20
433.18414812665208
30
-5.4242318630721516e-16
40
1.7500000000000002
0
CIRCLE
5
149
100
AcDbEntity
8
0
100
AcDbCircle
10
313.28824820418475
20
362.68414812665196
30
-9.3929128779934006e-16
40
2.7500000000000009
0
CIRCLE
5
150
100
AcDbEntity
8
0
100
AcDbCircle
10
313.28824820418475
20
342.68414812665213
30
2.8535551134801142e-16
40
2.7500000000000009
0
CIRCLE
5
151
100
AcDbEntity
8
0
100
AcDbCircle
10
308.78824820418481
20
402.18414812665185
30
-5.4242318630719149e-16
40
1.7500000000000002
0
CIRCLE
5
152
100
AcDbEntity
8
0
100
AcDbCircle
10
293.28824820418515
20
362.68414812665196
30
-1.0299976895046429e-15
40
2.7500000000000009
0
CIRCLE
5
153
100
AcDbEntity
8
0
100
AcDbCircle
10
277.78824820418492
20
433.18414812665208
30
-5.4242318630721516e-16
40
1.7500000000000002
0
CIRCLE
5
154
100
AcDbEntity
8
0
100
AcDbCircle
10
273.28824820418532
20
362.68414812665213
30
-9.3929128779934006e-16
40
2.7500000000000009
0
CIRCLE
5
155
100
AcDbEntity
8
0
100
AcDbCircle
10
277.78824820418492
20
402.18414812665185
30
-1.1842206476288072e-15
40
1.7500000000000002
0
CIRCLE
5
156
100
AcDbEntity
8
0
100
AcDbCircle
10
293.28824820418498
20
417.68414812665213
30
-5.4242318630721516e-16
40
3.0000000000000018
0
CIRCLE
5
157
100
AcDbEntity
8
0
100
AcDbCircle
10
308.78824820418487
20
433.18414812665208
30
9.9374275014392664e-17
40
1.7500000000000002
0
CIRCLE
5
158
100
AcDbEntity
8
0
100
AcDbCircle
10
273.28824820418509
20
342.6841481266523
30
2.8535551134801142e-16
40
2.7500000000000009
0
CIRCLE
5
159
100
AcDbEntity
8
0
100
AcDbCircle
10
293.28824820418498
20
322.68414812665213
30
-1.1207040912099299e-15
40
2.7500000000000009
0
CIRCLE
5
160
100
AcDbEntity
8
0
100
AcDbCircle
10
277.78824820418492
20
402.18414812665185
30
-1.1842206476288072e-15
40
1.7500000000000002
0
CIRCLE
5
161
100
AcDbEntity
8
0
100
AcDbCircle
10
308.78824820418481
20
402.18414812665185
30
-5.4242318630719149e-16
40
1.7500000000000002
0
CIRCLE
5
162
100
AcDbEntity
8
0
100
AcDbCircle
10
303.28824820418475
20
322.68414812665213
30
-1.029997689504635e-15
40
2.7500000000000009
0
CIRCLE
5
163
100
AcDbEntity
8
0
100
AcDbCircle
10
303.28824820418475
20
342.68414812665213
30
2.8535551134801142e-16
40
2.7500000000000009
0
CIRCLE
5
164
100
AcDbEntity
8
0
100
AcDbCircle
10
303.28824820418475
20
362.68414812665196
30
-9.3929128779934006e-16
40
2.7500000000000009
0
CIRCLE
5
165
100
AcDbEntity
8
0
100
AcDbCircle
10
283.28824820418475
20
322.68414812665213
30
-1.029997689504635e-15
40
2.7500000000000009
0
CIRCLE
5
166
100
AcDbEntity
8
0
100
AcDbCircle
10
283.28824820418475
20
342.68414812665213
30
2.8535551134801142e-16
40
2.7500000000000009
0
CIRCLE
5
167
100
AcDbEntity
8
0
100
AcDbCircle
10
283.28824820418475
20
362.68414812665196
30
-9.3929128779934006e-16
40
2.7500000000000009
0
CIRCLE
5
168
100
AcDbEntity
8
0
100
AcDbCircle
10
370.47690197297197
20
446.86332051420959
30
0.031242653355281133
40
2.7500000000000013
0
CIRCLE
5
169
100
AcDbEntity
8
0
100
AcDbCircle
10
350.47690197297197
20
446.86332051420959
30
0.031242653355281133
40
2.7500000000000013
0
CIRCLE
5
170
100
AcDbEntity
8
0
100
AcDbCircle
10
350.47690197297197
20
426.86332051420936
30
0.031242653355281133
40
2.7500000000000013
0
CIRCLE
5
171
100
AcDbEntity
8
0
100
AcDbCircle
10
390.47690197297197
20
446.86332051420959
30
0.031242653355281133
40
2.7500000000000013
0
CIRCLE
5
172
100
AcDbEntity
8
0
100
AcDbCircle
10
390.47690197297197
20
426.86332051420936
30
0.031242653355281133
40
2.7500000000000013
0
CIRCLE
5
173
100
AcDbEntity
8
0
100
AcDbCircle
10
370.47690197297197
20
426.86332051420936
30
0.031242653355281133
40
2.7500000000000013
0
CIRCLE
5
174
100
AcDbEntity
8
0
100
AcDbCircle
10
350.47690197297197
20
396.86332051420948
30
0.031242653355281133
40
2.7500000000000013
0
LWPOLYLINE
5
175
100
AcDbEntity
8
0
100
AcDbPolyline
90
10
70
1
43
0.0
10
338.27451114122204
20
448.97946933660734
42
-0.41421356237309503
10
343.27451114122192
20
453.97946933660717
10
392.27739804792714
20
453.97946933660728
42
-0.41421356237310752
10
397.27739804792714
20
448.97946933660717
10
397.27739804792714
20
421.04585729519243
10
358.86310927012119
20
369.40627163629352
42
-0.23481515248688245
10
354.89472083090891
20
367.39075480493887
10
343.3178531879571
20
367.29039800671137
42
-0.41675479761540474
10
338.27451114122198
20
372.29021014988086
10
338.27451114122198
20
386.4249358318159
0
CIRCLE
5
176
100
AcDbEntity
8
0
100
AcDbCircle
10
350.47690197297197
20
376.86332051420948
30
0.031242653355281133
40
2.7500000000000013
0
LWPOLYLINE
5
177
100
AcDbEntity
8
0
100
AcDbPolyline
90
10
70
1
43
0.0
10
413.27451114122198
20
326.4249358318159
10
413.27451114122198
20
388.97946933660717
10
413.27451114122198
20
403.11419501854232
42
0.41675479761540474
10
408.23116909448686
20
408.11400716171181
10
396.65430145153505
20
408.01365036348432
42
0.23481515248687948
10
392.68591301232277
20
405.99813353212966
10
354.27162423451682
20
354.35854787323069
10
354.27162423451682
20
326.4249358318159
42
0.41421356237310336
10
359.27162423451682
20
321.4249358318159
10
408.27451114122204
20
321.4249358318159
42
0.41421356237309503
0
CIRCLE
5
178
100
AcDbEntity
8
0
100
AcDbCircle
10
361.07212030947198
20
328.54108465421353
30
0.031242653355281133
40
2.7500000000000013
0
CIRCLE
5
179
100
AcDbEntity
8
0
100
AcDbCircle
10
401.07212030947198
20
348.54108465421382
30
0.031242653355281133
40
2.7500000000000013
0
CIRCLE
5
180
100
AcDbEntity
8
0
100
AcDbCircle
10
401.07212030947198
20
378.54108465421371
30
0.031242653355281133
40
2.7500000000000013
0
CIRCLE
5
181
100
AcDbEntity
8
0
100
AcDbCircle
10
361.07212030947198
20
348.54108465421382
30
0.031242653355281133
40
2.7500000000000013
0
CIRCLE
5
182
100
AcDbEntity
8
0
100
AcDbCircle
10
381.07212030947198
20
348.54108465421382
30
0.031242653355281133
40
2.7500000000000013
0
CIRCLE
5
183
100
AcDbEntity
8
0
100
AcDbCircle
10
381.07212030947198
20
328.54108465421353
30
0.031242653355281133
40
2.7500000000000013
0
CIRCLE
5
184
100
AcDbEntity
8
0
100
AcDbCircle
10
401.07212030947198
20
328.54108465421353
30
0.031242653355281133
40
2.7500000000000013
0
CIRCLE
5
185
100
AcDbEntity
8
0
100
AcDbCircle
10
401.07212030947198
20
398.54108465421371
30
0.031242653355281133
40
2.7500000000000013
0
LWPOLYLINE
5
186
100
AcDbEntity
8
0
100
AcDbPolyline
90
8
70
1
43
0.0
10
194.25170808678502
20
105.33487573964493
10
194.25170808678507
20
106.33487573964494
42
-0.41421356237309503
10
195.2517080867851
20
107.33487573964496
10
201.25170808678519
20
107.3348757396446
42
-0.41421356237309503
10
202.25170808678484
20
106.33487573964494
10
202.25170808678513
20
105.33487573964493
42
-0.41421356237309503
10
201.25170808678519
20
104.33487573964499
10
195.2517080867851
20
104.33487573964484
42
-0.41421356237309503
0
LWPOLYLINE
5
187
100
AcDbEntity
8
0
100
AcDbPolyline
90
8
70
1
43
0.0
10
208.25170808678521
20
103.33487573964497
10
208.25170808678507
20
125.83487573964497
42
0.41421356237309503
10
205.75170808678507
20
128.33487573964499
10
190.75170808678493
20
128.33487573964499
42
0.41421356237309503
10
188.25170808678493
20
125.83487573964497
10
188.25170808678493
20
103.33487573964497
42
0.41421356237309503
10
190.75170808678493
20
100.83487573964497
10
205.75170808678507
20
100.83487573964497
42
0.41421356237309503
0
LWPOLYLINE
5
188
100
AcDbEntity
8
0
100
AcDbPolyline
90
8
70
1
43
0.0
10
161.27059566074962
20
139.30969230769222
10
161.27059566074962
20
161.80969230769222
42
-0.41421356237309503
10
163.77059566074962
20
164.30969230769222
10
178.77059566074962
20
164.30969230769222
42
-0.41421356237309503
10
181.27059566074962
20
161.80969230769222
10
181.27059566074962
20
139.30969230769222
42
-0.41421356237309503
10
178.77059566074962
20
136.80969230769222
10
163.77059566074962
20
136.80969230769222
42
-0.41421356237309503
0
LWPOLYLINE
5
189
100
AcDbEntity
8
0
100
AcDbPolyline
90
4
70
1
43
0.0
10
168.27059566074951
20
151.30969230769225
10
174.27059566074973
20
151.30969230769225
42
-0.99999999999999989
10
174.27059566074973
20
149.30969230769222
10
168.27059566074951
20
149.30969230769222
42
-0.99999999999999989
0
LWPOLYLINE
5
190
100
AcDbEntity
8
0
100
AcDbPolyline
90
4
70
1
43
0.0
10
174.27059566074973
20
145.30969230769222
10
168.27059566074951
20
145.3096923076923
42
-0.99999999999999989
10
168.27059566074951
20
147.30969230769219
10
174.27059566074973
20
147.30969230769227
42
-0.99999999999999989
0
LWPOLYLINE
5
191
100
AcDbEntity
8
0
100
AcDbPolyline
90
8
70
1
43
0.0
10
175.27059566074954
20
141.30969230769225
10
175.27059566074954
20
142.30969230769219
42
0.41421356237309503
10
174.27059566074973
20
143.30969230769222
10
168.27059566074951
20
143.30969230769222
42
0.41421356237309503
10
167.27059566074942
20
142.30969230769219
10
167.27059566074942
20
141.30969230769225
42
0.41421356237309503
10
168.27059566074951
20
140.30969230769222
10
174.27059566074973
20
140.30969230769222
42
0.41421356237309503
0
LWPOLYLINE
5
192
100
AcDbEntity
8
0
100
AcDbPolyline
90
4
70
1
43
0.0
10
196.37592110453667
20
148.31179092702166
10
202.37592110453647
20
148.31179092702158
42
-0.99999999999999989
10
202.37592110453647
20
146.31179092702169
10
196.37592110453667
20
146.3117909270216
42
-0.99999999999999989
0
LWPOLYLINE
5
193
100
AcDbEntity
8
0
100
AcDbPolyline
90
4
70
1
43
0.0
10
202.37592110453647
20
144.31179092702166
10
196.37592110453667
20
144.31179092702166
42
0.99999999999999989
10
196.37592110453667
20
142.31179092702163
10
202.37592110453647
20
142.31179092702163
42
0.99999999999999989
0
LWPOLYLINE
5
194
100
AcDbEntity
8
0
100
AcDbPolyline
90
8
70
1
43
0.0
10
209.3759211045365
20
136.3117909270216
10
209.3759211045365
20
158.81179092702169
42
0.41421356237309503
10
206.8759211045365
20
161.3117909270216
10
191.87592110453664
20
161.3117909270216
42
0.41421356237309503
10
189.37592110453664
20
158.81179092702169
10
189.37592110453664
20
136.3117909270216
42
0.41421356237309503
10
191.87592110453664
20
133.8117909270216
10
206.8759211045365
20
133.8117909270216
42
0.41421356237309503
0
LWPOLYLINE
5
195
100
AcDbEntity
8
0
100
AcDbPolyline
90
8
70
1
43
0.0
10
203.37592110453656
20
138.31179092702166
10
203.37592110453642
20
139.31179092702166
42
0.41421356237309503
10
202.37592110453647
20
140.31179092702166
10
196.37592110453667
20
140.31179092702166
42
0.41421356237309503
10
195.37592110453659
20
139.31179092702166
10
195.37592110453659
20
138.31179092702166
42
0.41421356237309503
10
196.37592110453667
20
137.31179092702163
10
202.37592110453647
20
137.31179092702163
42
0.41421356237309503
0
LWPOLYLINE
5
196
100
AcDbEntity
8
0
100
AcDbPolyline
90
4
70
1
43
0.0
10
195.2517080867851
20
115.33487573964493
10
201.25170808678519
20
115.334875739645
42
-0.99999999999999989
10
201.25170808678519
20
113.33487573964497
10
195.2517080867851
20
113.33487573964504
42
-0.99999999999999989
0
LWPOLYLINE
5
197
100
AcDbEntity
8
0
100
AcDbPolyline
90
4
70
1
43
0.0
10
201.25170808678519
20
109.33487573964499
10
195.2517080867851
20
109.33487573964491
42
-0.99999999999999989
10
195.2517080867851
20
111.33487573964494
10
201.25170808678519
20
111.33487573964487
42
-0.99999999999999989
0
CIRCLE
5
198
100
AcDbEntity
8
0
100
AcDbCircle
10
198.25170808678507
20
121.83487573964499
30
0
40
2.7500000000000009
0
CIRCLE
5
199
100
AcDbEntity
8
0
100
AcDbCircle
10
199.3759211045365
20
154.81179092702163
30
0
40
2.7500000000000009
0
LWPOLYLINE
5
200
100
AcDbEntity
8
0
100
AcDbPolyline
90
37
70
1
43
0.0
10
247.74887806095649
20
168.22482840236682
10
227.01975310274037
20
168.22482840236682
42
0.39223011310777822
10
222.03404795912746
20
163.60264346420513
10
219.88431558184857
20
127.6673290218632
10
219.88431558184828
20
105.23444734560029
42
-0.67721904440718284
10
154.88431558184857
20
105.23444734560023
10
154.88431558184857
20
127.66732902186305
42
0.018911030293517268
10
154.31252132636445
20
142.77993149539626
10
152.73458320456967
20
163.60264346420522
42
0.392230113107776
10
147.74887806095634
20
168.22482840236682
10
127.01975310274058
20
168.22482840236682
42
0.39223011310777822
10
122.03404795912768
20
163.60264346420513
10
120.45610983733255
20
142.77993149539668
42
0.018911030293517268
10
119.88431558184843
20
127.66732902186348
10
119.8843155818487
20
105.23444734560027
42
-0.67721904440718439
10
54.884315581848711
20
105.2344473456003
10
54.884315581848568
20
127.66732902186341
42
0.018911030293517268
10
54.312521326364305
20
142.77993149539654
10
52.734583204569319
20
163.60264346420513
42
0.39223011310777822
10
47.748878060956415
20
168.22482840236682
10
42.384315581848568
20
168.22482840236682
42
0.41421356237309087
10
37.384315581848568
20
163.22482840236688
10
37.282066697608052
20
44.674524344191155
42
0.41421356237309453
10
47.27343804485983
20
34.665903130391698
10
327.35323950244651
20
34.424336080649809
42
0.41441084352977703
10
337.36186425715232
20
44.422442557015671
10
337.38431558184828
20
163.22482840236688
42
0.41421356237309087
10
332.38431558184828
20
168.22482840236682
10
327.01975310274037
20
168.22482840236682
42
0.39223011310777411
10
322.03404795912746
20
163.60264346420522
10
320.45610983733241
20
142.77993149539668
42
0.018911030293517268
10
319.88431558184845
20
127.66732902186348
10
319.8843155818484
20
105.23444734560027
42
-0.67721904440718439
10
254.88431558184843
20
105.2344473456003
10
254.88431558184857
20
127.66732902186298
42
0.018911030293517268
10
254.31252132636445
20
142.77993149539626
10
252.73458320456939
20
163.60264346420513
42
0.39223011310777822
0
LWPOLYLINE
5
201
100
AcDbEntity
8
0
100
AcDbPolyline
90
8
70
1
43
0.0
10
163.89375936883638
20
126.2096134122288
42
-0.41421356237309503
10
166.39375936883638
20
128.7096134122288
10
181.39375936883653
20
128.70961341222866
42
-0.41421356237309503
10
183.89375936883638
20
126.2096134122288
10
183.89375936883653
20
103.7096134122288
42
-0.41421356237309503
10
181.39375936883653
20
101.2096134122288
10
166.39375936883638
20
101.20961341222866
42
-0.41421356237309503
10
163.89375936883624
20
103.7096134122288
0
CIRCLE
5
202
100
AcDbEntity
8
0
100
AcDbCircle
10
173.89375936883653
20
122.20961341222882
30
0
40
2.7500000000000009
0
LWPOLYLINE
5
203
100
AcDbEntity
8
0
100
AcDbPolyline
90
4
70
1
43
0.0
10
170.89375936883627
20
113.7096134122288
42
-0.99999999999999989
10
170.89375936883627
20
115.70961341222883
10
176.8937593688365
20
115.70961341222883
42
-0.99999999999999989
10
176.8937593688365
20
113.7096134122288
0
LWPOLYLINE
5
204
100
AcDbEntity
8
0
100
AcDbPolyline
90
4
70
1
43
0.0
10
176.8937593688365
20
111.70961341222885
42
-0.99999999999999989
10
176.8937593688365
20
109.70961341222882
10
170.89375936883627
20
109.70961341222889
42
-0.99999999999999989
10
170.89375936883627
20
111.70961341222878
0
LWPOLYLINE
5
205
100
AcDbEntity
8
0
100
AcDbPolyline
90
8
70
1
43
0.0
10
170.89375936883627
20
104.70961341222889
42
-0.41421356237309503
10
169.89375936883633
20
105.70961341222883
10
169.89375936883619
20
106.70961341222878
42
-0.41421356237309503
10
170.89375936883627
20
107.70961341222886
10
176.8937593688365
20
107.70961341222886
42
-0.41421356237309503
10
177.89375936883658
20
106.70961341222878
10
177.89375936883653
20
105.70961341222883
42
-0.41421356237309503
10
176.8937593688365
20
104.70961341222882
0
CIRCLE
5
206
100
AcDbEntity
8
0
100
AcDbCircle
10
171.27059566074948
20
157.80969230769222
30
0
40
2.7500000000000009
0
CIRCLE
5
207
100
AcDbEntity
8
0
100
AcDbCircle
10
47.384315581848568
20
43.224828402366811
30
0
40
2.7500000000000009
0
CIRCLE
5
208
100
AcDbEntity
8
0
100
AcDbCircle
10
47.384315581848568
20
58.224828402366811
30
0
40
2.7500000000000009
0
CIRCLE
5
209
100
AcDbEntity
8
0
100
AcDbCircle
10
87.384315581848568
20
43.224828402366811
30
0
40
2.7500000000000009
0
CIRCLE
5
210
100
AcDbEntity
8
0
100
AcDbCircle
10
87.384315581848568
20
58.224828402366811
30
0
40
2.7500000000000009
0
CIRCLE
5
211
100
AcDbEntity
8
0
100
AcDbCircle
10
127.38431558184857
20
43.224828402366811
30
0
40
2.7500000000000009
0
CIRCLE
5
212
100
AcDbEntity
8
0
100
AcDbCircle
10
127.38431558184857
20
58.224828402366811
30
0
40
2.7500000000000009
0
CIRCLE
5
213
100
AcDbEntity
8
0
100
AcDbCircle
10
167.38431558184857
20
43.224828402366811
30
0
40
2.7500000000000009
0
CIRCLE
5
214
100
AcDbEntity
8
0
100
AcDbCircle
10
167.38431558184857
20
58.224828402366811
30
0
40
2.7500000000000009
0
CIRCLE
5
215
100
AcDbEntity
8
0
100
AcDbCircle
10
207.38431558184857
20
43.224828402366811
30
0
40
2.7500000000000009
0
CIRCLE
5
216
100
AcDbEntity
8
0
100
AcDbCircle
10
207.38431558184857
20
58.224828402366811
30
0
40
2.7500000000000009
0
CIRCLE
5
217
100
AcDbEntity
8
0
100
AcDbCircle
10
247.38431558184857
20
43.224828402366811
30
0
40
2.7500000000000009
0
CIRCLE
5
218
100
AcDbEntity
8
0
100
AcDbCircle
10
247.38431558184857
20
58.224828402366811
30
0
40
2.7500000000000009
0
CIRCLE
5
219
100
AcDbEntity
8
0
100
AcDbCircle
10
287.38431558184857
20
43.224828402366811
30
0
40
2.7500000000000009
0
CIRCLE
5
220
100
AcDbEntity
8
0
100
AcDbCircle
10
287.38431558184857
20
58.224828402366811
30
0
40
2.7500000000000009
0
CIRCLE
5
221
100
AcDbEntity
8
0
100
AcDbCircle
10
127.38431558184857
20
43.224828402366811
30
0
40
2.7500000000000009
0
CIRCLE
5
222
100
AcDbEntity
8
0
100
AcDbCircle
10
127.38431558184857
20
58.224828402366811
30
0
40
2.7500000000000009
0
CIRCLE
5
223
100
AcDbEntity
8
0
100
AcDbCircle
10
327.38431558184857
20
43.224828402366811
30
0
40
2.7500000000000009
0
CIRCLE
5
224
100
AcDbEntity
8
0
100
AcDbCircle
10
327.38431558184857
20
58.224828402366811
30
0
40
2.7500000000000009
0
LWPOLYLINE
5
225
100
AcDbEntity
8
0
100
AcDbPolyline
90
14
70
1
43
0.0
10
115.12631097781302
20
137.45352850176795
10
115.1267402229724
20
154.63264030981236
42
0.41421364037708197
10
109.7232891629028
20
160.03635996370619
10
80.68671638658806
20
160.03707775173282
42
0.41422080275181683
10
75.282998170138029
20
154.63349311428067
10
75.282998170138058
20
136.20206779473054
42
-7.3621599759996013e-05
10
75.282997935832583
20
136.20047651257414
10
75.27387851457803
20
105.23327038538596
42
0.41898817760471502
10
80.353772437124391
20
100.23243630151597
10
94.82351837463483
20
100.46367540338821
42
0.41421356237309503
10
100.14007019130993
20
105.9529131177262
10
99.880714763013231
20
122.18203321282687
42
-0.26933840440214363
10
102.53145096977974
20
126.91857510573641
10
112.47488489913678
20
132.80346457413151
42
0.26505162339775856
0
CIRCLE
5
226
100
AcDbEntity
8
0
100
AcDbCircle
10
105.28824820418478
20
154.68414812665202
30
-9.3929128779934006e-16
40
2.7500000000000009
0
CIRCLE
5
227
100
AcDbEntity
8
0
100
AcDbCircle
10
105.28824820418478
20
139.68414812665216
30
2.8535551134801142e-16
40
2.7500000000000009
0
CIRCLE
5
228
100
AcDbEntity
8
0
100
AcDbCircle
10
85.288248204185209
20
154.68414812665202
30
-1.0299976895046429e-15
40
2.7500000000000009
0
CIRCLE
5
229
100
AcDbEntity
8
0
100
AcDbCircle
10
85.288248204185209
20
139.68414812665216
30
1.9464910964270861e-16
40
2.7500000000000009
0
CIRCLE
5
230
100
AcDbEntity
8
0
100
AcDbCircle
10
85.288248204185209
20
111.68414812665219
30
1.9464910964270861e-16
40
4.1105687752448352
0
CIRCLE
5
231
100
AcDbEntity
8
0
100
AcDbCircle
10
364.47690197297197
20
156.86332051420962
30
0.031242653355281133
40
2.7500000000000013
0
LWPOLYLINE
5
232
100
AcDbEntity
8
0
100
AcDbPolyline
90
17
70
1
43
0.0
10
353.27451114122198
20
102.90725931204946
10
353.27451114122198
20
102.03210883247337
42
0.41421356237309087
10
358.27451114122192
20
97.032108832473369
10
366.8759410483151
20
97.032108832473369
42
0.28436048580554374
10
371.35040372002629
20
99.800700353628002
10
378.84006336787849
20
114.81910816010739
10
376.77270712420096
20
115.85009592096227
10
379.97881672685196
20
117.1025580283488
10
393.55921384204362
20
144.33422830970443
42
0.11612477406586731
10
394.08475109105694
20
146.56474642011659
10
394.08696069093492
20
158.97309200231058
42
0.41421356237307422
10
389.08785113864383
20
163.97398229146816
10
358.27451114122192
20
163.9794693366072
42
0.41421356237309503
10
353.27451114122198
20
158.97946933660728
10
353.27451114122198
20
117.23380734049357
10
355.04149926123148
20
115.85009592096263
10
353.27451114122198
20
114.66180241646306
0
CIRCLE
5
233
100
AcDbEntity
8
0
100
AcDbCircle
10
371.47690197297203
20
111.86332051420933
30
0.031242653355281133
40
2.7500000000000013
0
CIRCLE
5
234
100
AcDbEntity
8
0
100
AcDbCircle
10
359.47690197297197
20
101.86332051420948
30
0.031242653355281133
40
2.7500000000000013
0
CIRCLE
5
235
100
AcDbEntity
8
0
100
AcDbCircle
10
359.47690197297197
20
111.86332051420948
30
0.031242653355281133
40
2.7500000000000013
0
CIRCLE
5
236
100
AcDbEntity
8
0
100
AcDbCircle
10
384.47690197297197
20
156.86332051420962
30
0.031242653355281133
40
2.7500000000000013
0
LINE
5
237
100
AcDbEntity
8
0
100
AcDbLine
10
355.04149926123148
20
115.85009592096263
30
0
11
354.15800520122667
21
115.25594916871285
31
0
0
LWPOLYLINE
5
238
100
AcDbEntity
8
0
100
AcDbPolyline
90
17
70
1
43
0.0
10
369.97881672685196
20
87.102558028348795
10
366.77270712420096
20
85.850095920962275
10
353.19231000900925
20
58.618425639606642
42
0.11612477406586731
10
352.66677275999598
20
56.387907529194479
10
352.66456316011795
20
43.979561947000505
42
0.41421356237307422
10
357.6636727124091
20
38.978671657842909
10
388.477012709831
20
38.973184612703875
42
0.41421356237309503
10
393.47701270983094
20
43.973184612703804
10
393.47701270983094
20
85.718846608817501
10
391.71002458982144
20
87.10255802834844
10
393.47701270983094
20
88.290851532848009
10
393.47701270983094
20
100.04539463726161
10
393.47701270983094
20
100.9205451168377
42
0.41421356237309087
10
388.477012709831
20
105.9205451168377
10
379.87558280273782
20
105.9205451168377
42
0.28436048580554374
10
375.40112013102663
20
103.15195359568307
10
367.91146048317444
20
88.13354578920368
0
LINE
5
239
100
AcDbEntity
8
0
100
AcDbLine
10
391.71002458982144
20
87.10255802834844
30
0
11
392.59351864982625
21
87.696704780598225
31
0
0
CIRCLE
5
240
100
AcDbEntity
8
0
100
AcDbCircle
10
387.27462187808095
20
101.08933343510159
30
0.031242653355281133
40
2.7500000000000013
0
CIRCLE
5
241
100
AcDbEntity
8
0
100
AcDbCircle
10
375.27462187808089
20
91.089333435101736
30
0.031242653355281133
40
2.7500000000000013
0
CIRCLE
5
242
100
AcDbEntity
8
0
100
AcDbCircle
10
387.27462187808095
20
91.089333435101594
30
0.031242653355281133
40
2.7500000000000013
0
CIRCLE
5
243
100
AcDbEntity
8
0
100
AcDbCircle
10
382.27462187808095
20
46.089333435101452
30
0.031242653355281133
40
2.7500000000000013
0
CIRCLE
5
244
100
AcDbEntity
8
0
100
AcDbCircle
10
362.27462187808095
20
46.089333435101452
30
0.031242653355281133
40
2.7500000000000013
0
LWPOLYLINE
5
245
100
AcDbEntity
8
0
100
AcDbPolyline
90
17
70
1
43
0.0
10
402.66677275999598
20
56.387907529194479
42
-0.11612477406586728
10
403.19231000900925
20
58.618425639606642
10
416.77270712420096
20
85.850095920962275
10
419.97881672685196
20
87.102558028348795
10
417.91146048317444
20
88.13354578920368
10
425.40112013102663
20
103.15195359568307
42
-0.28436048580554374
10
429.87558280273782
20
105.9205451168377
10
438.477012709831
20
105.9205451168377
42
-0.41421356237309087
10
443.47701270983094
20
100.9205451168377
10
443.47701270983094
20
100.04539463726161
10
443.47701270983094
20
88.290851532848009
10
441.71002458982144
20
87.10255802834844
10
443.47701270983094
20
85.718846608817501
10
443.47701270983094
20
43.973184612703804
42
-0.41421356237309503
10
438.477012709831
20
38.973184612703875
10
407.6636727124091
20
38.978671657842909
42
-0.41421356237307422
10
402.66456316011795
20
43.979561947000505
0
LWPOLYLINE
5
246
100
AcDbEntity
8
0
100
AcDbPolyline
90
17
70
1
43
0.0
10
426.77270712420096
20
115.85009592096227
10
429.97881672685196
20
117.1025580283488
10
443.55921384204362
20
144.33422830970443
42
0.11612477406586731
10
444.08475109105694
20
146.56474642011659
10
444.08696069093492
20
158.97309200231058
42
0.41421356237307422
10
439.08785113864383
20
163.97398229146816
10
408.27451114122192
20
163.9794693366072
42
0.41421356237309503
10
403.27451114122198
20
158.97946933660728
10
403.27451114122198
20
117.23380734049357
10
405.04149926123148
20
115.85009592096263
10
403.27451114122198
20
114.66180241646306
10
403.27451114122198
20
102.90725931204946
10
403.27451114122198
20
102.03210883247337
42
0.41421356237309087
10
408.27451114122192
20
97.032108832473369
10
416.8759410483151
20
97.032108832473369
42
0.28436048580554374
10
421.35040372002629
20
99.800700353628002
10
428.84006336787849
20
114.81910816010739
0
CIRCLE
5
247
100
AcDbEntity
8
0
100
AcDbCircle
10
425.27462187808089
20
91.089333435101736
30
0.031242653355281133
40
2.7500000000000013
0
LINE
5
248
100
AcDbEntity
8
0
100
AcDbLine
10
405.04149926123148
20
115.85009592096263
30
0
11
404.15800520122667
21
115.25594916871285
31
0
0
CIRCLE
5
249
100
AcDbEntity
8
0
100
AcDbCircle
10
414.47690197297197
20
156.86332051420962
30
0.031242653355281133
40
2.7500000000000013
0
CIRCLE
5
250
100
AcDbEntity
8
0
100
AcDbCircle
10
434.47690197297197
20
156.86332051420962
30
0.031242653355281133
40
2.7500000000000013
0
CIRCLE
5
251
100
AcDbEntity
8
0
100
AcDbCircle
10
409.47690197297197
20
101.86332051420948
30
0.031242653355281133
40
2.7500000000000013
0
CIRCLE
5
252
100
AcDbEntity
8
0
100
AcDbCircle
10
412.27462187808095
20
46.089333435101452
30
0.031242653355281133
40
2.7500000000000013
0
CIRCLE
5
253
100
AcDbEntity
8
0
100
AcDbCircle
10
409.47690197297197
20
111.86332051420948
30
0.031242653355281133
40
2.7500000000000013
0
CIRCLE
5
254
100
AcDbEntity
8
0
100
AcDbCircle
10
437.27462187808095
20
91.089333435101594
30
0.031242653355281133
40
2.7500000000000013
0
CIRCLE
5
255
100
AcDbEntity
8
0
100
AcDbCircle
10
432.27462187808095
20
46.089333435101452
30
0.031242653355281133
40
2.7500000000000013
0
CIRCLE
5
256
100
AcDbEntity
8
0
100
AcDbCircle
10
421.47690197297203
20
111.86332051420933
30
0.031242653355281133
40
2.7500000000000013
0
LINE
5
257
100
AcDbEntity
8
0
100
AcDbLine
10
441.71002458982144
20
87.10255802834844
30
0
11
442.59351864982625
21
87.696704780598225
31
0
0
CIRCLE
5
258
100
AcDbEntity
8
0
100
AcDbCircle
10
437.27462187808095
20
101.08933343510159
30
0.031242653355281133
40
2.7500000000000013
0
CIRCLE
5
259
100
AcDbEntity
8
0
100
AcDbCircle
10
288.78824820418487
20
283.18414812665208
30
9.9374275014392664e-17
40
1.7500000000000002
0
LWPOLYLINE
5
260
100
AcDbEntity
8
0
100
AcDbPolyline
90
8
70
1
43
0.0
10
303.29021164378446
20
189.18201685695527
10
303.28824820418509
20
287.68414812665208
42
0.41421356237309503
10
298.28824820418498
20
292.68414812665185
10
248.28824820418518
20
292.68414812665196
42
0.41421356237309503
10
243.28824820418509
20
287.68414812665213
10
243.2664044033335
20
189.26707689494322
42
0.41378651648098519
10
248.2580032975323
20
184.26597419592582
10
298.28181066213318
20
184.18192424978315
42
0.414711606717583
0
CIRCLE
5
261
100
AcDbEntity
8
0
100
AcDbCircle
10
293.28824820418475
20
192.68414812665213
30
2.8535551134801142e-16
40
2.7500000000000009
0
CIRCLE
5
262
100
AcDbEntity
8
0
100
AcDbCircle
10
257.78824820418492
20
283.18414812665208
30
-5.4242318630721516e-16
40
1.7500000000000002
0
LINE
5
263
100
AcDbEntity
8
0
100
AcDbLine
10
248.28824820418518
20
292.68414812665196
30
0
11
298.28824820418498
21
292.68414812665185
31
0
0
CIRCLE
5
264
100
AcDbEntity
8
0
100
AcDbCircle
10
288.78824820418481
20
252.18414812665188
30
-5.4242318630719149e-16
40
1.7500000000000002
0
CIRCLE
5
265
100
AcDbEntity
8
0
100
AcDbCircle
10
288.78824820418481
20
252.18414812665188
30
-5.4242318630719149e-16
40
1.7500000000000002
0
CIRCLE
5
266
100
AcDbEntity
8
0
100
AcDbCircle
10
257.78824820418492
20
252.18414812665188
30
-1.1842206476288072e-15
40
1.7500000000000002
0
CIRCLE
5
267
100
AcDbEntity
8
0
100
AcDbCircle
10
273.28824820418515
20
192.68414812665213
30
1.9464910964270861e-16
40
2.7500000000000009
0
CIRCLE
5
268
100
AcDbEntity
8
0
100
AcDbCircle
10
273.28824820418498
20
267.68414812665213
30
-5.4242318630721516e-16
40
3.0000000000000018
0
CIRCLE
5
269
100
AcDbEntity
8
0
100
AcDbCircle
10
257.78824820418492
20
283.18414812665208
30
-5.4242318630721516e-16
40
1.7500000000000002
0
CIRCLE
5
270
100
AcDbEntity
8
0
100
AcDbCircle
10
273.28824820418498
20
267.68414812665213
30
-5.4242318630721516e-16
40
3.0000000000000018
0
CIRCLE
5
271
100
AcDbEntity
8
0
100
AcDbCircle
10
253.28824820418509
20
192.68414812665227
30
2.8535551134801142e-16
40
2.7500000000000009
0
CIRCLE
5
272
100
AcDbEntity
8
0
100
AcDbCircle
10
257.78824820418492
20
252.18414812665188
30
-1.1842206476288072e-15
40
1.7500000000000002
0
CIRCLE
5
273
100
AcDbEntity
8
0
100
AcDbCircle
10
273.28824820418515
20
212.68414812665199
30
-1.0299976895046429e-15
40
2.7500000000000009
0
CIRCLE
5
274
100
AcDbEntity
8
0
100
AcDbCircle
10
253.28824820418518
20
212.68414812665208
30
-1.0299976895046429e-15
40
2.7500000000000009
0
CIRCLE
5
275
100
AcDbEntity
8
0
100
AcDbCircle
10
288.78824820418487
20
283.18414812665208
30
9.9374275014392664e-17
40
1.7500000000000002
0
CIRCLE
5
276
100
AcDbEntity
8
0
100
AcDbCircle
10
253.28824820418532
20
212.68414812665213
30
-9.3929128779934006e-16
40
2.7500000000000009
0
CIRCLE
5
277
100
AcDbEntity
8
0
100
AcDbCircle
10
293.28824820418475
20
212.68414812665199
30
-9.3929128779934006e-16
40
2.7500000000000009
0
LWPOLYLINE
5
278
100
AcDbEntity
8
0
100
AcDbPolyline
90
12
70
1
43
0.0
10
302.7040946745563
20
91.319661404857015
10
272.70409467455647
20
91.319661404857015
42
-0.41421356237310336
10
267.70409467455647
20
96.319661404857015
10
267.70409467455647
20
156.31966009415692
42
-0.41421356237309503
10
272.70409467455647
20
161.31966009415706
10
282.7040946745563
20
161.31966009415697
42
-0.4142135623730992
10
287.7040946745563
20
156.31966009415692
10
287.70409467455636
20
116.31966140485702
42
0.41421356237308254
10
292.7040946745563
20
111.31966140485716
10
302.7040946745563
20
111.31966140485702
42
-0.41421356237310336
10
307.7040946745563
20
106.31966140485702
10
307.7040946745563
20
96.319661404857015
42
-0.41421356237310336
0
LWPOLYLINE
5
279
100
AcDbEntity
8
0
100
AcDbPolyline
90
4
70
1
43
0.0
10
274.9540946745563
20
121.31966009415706
42
0.99999999999999989
10
280.45409467455613
20
121.31966009415706
10
280.45409467455642
20
151.31966009415692
42
0.99999999999999989
10
274.95409467455613
20
151.31966009415706
0
CIRCLE
5
280
100
AcDbEntity
8
0
100
AcDbCircle
10
277.7040946745563
20
101.31966140485702
30
0
40
2.7500000000000009
0
CIRCLE
5
281
100
AcDbEntity
8
0
100
AcDbCircle
10
297.70409467455636
20
101.31966140485702
30
0
40
2.7500000000000009
0
LWPOLYLINE
5
282
100
AcDbEntity
8
0
100
AcDbPolyline
90
4
70
1
43
0.0
10
79.812565936093819
20
294.53455864180938
10
109.81256593609395
20
294.53455864180938
42
-0.99999999999999989
10
109.81256593609395
20
289.03455864180955
10
79.812565936093762
20
289.03455864180955
42
-0.99999999999999989
0
CIRCLE
5
283
100
AcDbEntity
8
0
100
AcDbCircle
10
79.81256593609389
20
241.78455864180955
30
0
40
2.7500000000000009
0
CIRCLE
5
284
100
AcDbEntity
8
0
100
AcDbCircle
10
129.8125659360939
20
266.78455864180955
30
0
40
2.7500000000000009
0
CIRCLE
5
285
100
AcDbEntity
8
0
100
AcDbCircle
10
74.812565936094103
20
271.78455864180967
30
0
40
2.7500000000000009
0
CIRCLE
5
286
100
AcDbEntity
8
0
100
AcDbCircle
10
109.81256593609395
20
266.78455864180955
30
0
40
2.7500000000000009
0
LWPOLYLINE
5
287
100
AcDbEntity
8
0
100
AcDbPolyline
90
8
70
1
43
0.0
10
59.848074735874377
20
302.02925399507029
42
0.4142135623730942
10
47.848074735874356
20
290.02925399507023
10
47.848074735874341
20
186.18203007091608
42
0.41390055909600987
10
59.835249398921846
20
174.18203692463734
10
148.23090250294584
20
174.18203692463734
42
0.4142135623730695
10
160.23090250294592
20
186.18203692463638
10
160.23301067586331
20
290.02901038590022
42
0.41421950834175569
10
148.233010678336
20
302.02925399507023
0
CIRCLE
5
288
100
AcDbEntity
8
0
100
AcDbCircle
10
149.8125659360939
20
266.78455864180955
30
0
40
2.7500000000000009
0
CIRCLE
5
289
100
AcDbEntity
8
0
100
AcDbCircle
10
74.812565936094103
20
181.78455864180967
30
0
40
2.7500000000000009
0
CIRCLE
5
290
100
AcDbEntity
8
0
100
AcDbCircle
10
149.81256593609396
20
181.78455864180967
30
0
40
2.7500000000000009
0
CIRCLE
5
291
100
AcDbEntity
8
0
100
AcDbCircle
10
89.812565936093947
20
266.78455864180955
30
0
40
2.7500000000000009
0
CIRCLE
5
292
100
AcDbEntity
8
0
100
AcDbCircle
10
54.812565936094089
20
181.78455864180967
30
0
40
2.7500000000000009
0
CIRCLE
5
293
100
AcDbEntity
8
0
100
AcDbCircle
10
94.812565936094089
20
181.78455864180967
30
0
40
2.7500000000000009
0
CIRCLE
5
294
100
AcDbEntity
8
0
100
AcDbCircle
10
149.81256593609396
20
241.78455864180967
30
0
40
2.7500000000000009
0
CIRCLE
5
295
100
AcDbEntity
8
0
100
AcDbCircle
10
109.81256593609395
20
181.78455864180967
30
0
40
2.7500000000000009
0
CIRCLE
5
296
100
AcDbEntity
8
0
100
AcDbCircle
10
54.812565936094089
20
271.78455864180967
30
0
40
2.7500000000000009
0
CIRCLE
5
297
100
AcDbEntity
8
0
100
AcDbCircle
10
109.81256593609395
20
241.78455864180955
30
0
40
2.7500000000000009
0
CIRCLE
5
298
100
AcDbEntity
8
0
100
AcDbCircle
10
129.8125659360939
20
241.78455864180955
30
0
40
2.7500000000000009
0
CIRCLE
5
299
100
AcDbEntity
8
0
100
AcDbCircle
10
149.8125659360939
20
291.78455864180961
30
0
40
2.7500000000000009
0
LINE
5
300
100
AcDbEntity
8
0
100
AcDbLine
10
160.23090250294592
20
186.18203692463638
30
0
11
160.23090250294592
21
183.47633182478774
31
0
0
CIRCLE
5
301
100
AcDbEntity
8
0
100
AcDbCircle
10
59.812565936093876
20
241.78455864180955
30
0
40
2.7500000000000009
0
ENDSEC
0
SECTION
2
OBJECTS
0
DICTIONARY
5
C
100
AcDbDictionary
3
ACAD_GROUP
350
D
3
ACAD_MLINESTYLE
350
17
0
DICTIONARY
5
D
100
AcDbDictionary
0
DICTIONARY
5
1A
330
C
100
AcDbDictionary
0
DICTIONARY
5
17
100
AcDbDictionary
0
ENDSEC
0
EOF
